<svg id="Component_15_10" data-name="Component 15 – 10" xmlns="http://www.w3.org/2000/svg" width="55.597" height="54.773" viewBox="0 0 55.597 54.773">
  <path id="Path_112" data-name="Path 112" d="M433.289,41.083,420.009,27.8a14.893,14.893,0,0,1,2.084,2.612,14.794,14.794,0,0,1,3.383,7.739,15.053,15.053,0,0,1-.007,3.855,14.734,14.734,0,0,1-2.982,7.121l-4.811,6.2-4.544,5.859-1.025,1.322a14.9,14.9,0,0,0,20.9-.123l.28-.28A14.887,14.887,0,0,0,433.289,41.083Z" transform="translate(-382.04 -24.155)" fill="#eee23e"/>
  <path id="Path_113" data-name="Path 113" d="M222.19,4.628l-.28-.28a14.887,14.887,0,0,0-21.03,0l-9.106,9.106-4.451,4.451a14.887,14.887,0,0,0,0,21.03l.279.279a14.9,14.9,0,0,0,21.03,0l2.763-2.763,5.243-5.243,5.551-5.551a14.735,14.735,0,0,0,3.852-6.691,15.032,15.032,0,0,0,.49-3.823A14.766,14.766,0,0,0,222.19,4.628Z" transform="translate(-182.976)" fill="#eee23e"/>
  <circle id="Ellipse_33" data-name="Ellipse 33" cx="6.376" cy="6.376" r="6.376" transform="translate(20.798 42.021)" fill="#eee23e"/>
</svg>
