<svg id="Component_14_11" data-name="Component 14 – 11" xmlns="http://www.w3.org/2000/svg" width="48.4" height="55.512" viewBox="0 0 48.4 55.512">
  <path id="Path_367" data-name="Path 367" d="M3315.353,227.126l-13.792-7.456-12.824,33.717-5.151-1.93,6.929-18.439c-.586-.184-1.083-.309-1.555-.5-.719-.284-1.082-.026-1.378.659-.974,2.253-2,4.48-3.048,6.794l-4.939-2.223,7.941-18.969c-2.268.853-3.212,2.107-6.65,8.69-.8-.353-1.609-.706-2.415-1.072s-1.634-.759-2.544-1.182c2.527-6.356,6.135-11.527,13.211-13.145a11.359,11.359,0,0,1,4.505-.126c4.494.845,8.973,1.788,13.022,4.127,3.331,1.924,6.749,3.7,10.126,5.538.373.2.736.429,1.179.689C3317.1,223.9,3316.267,225.443,3315.353,227.126Z" transform="translate(-3269.572 -199.72)" fill="#b48c2e"/>
  <path id="Path_368" data-name="Path 368" d="M3342.142,176.511a5.54,5.54,0,0,1-5.455-5.595,5.6,5.6,0,0,1,5.554-5.519,5.676,5.676,0,0,1,5.553,5.558A5.609,5.609,0,0,1,3342.142,176.511Z" transform="translate(-3314.535 -165.397)" fill="#b48c2e"/>
  <path id="Path_369" data-name="Path 369" d="M3262.493,341.676a5.5,5.5,0,1,1-5.523-5.489A5.517,5.517,0,0,1,3262.493,341.676Z" transform="translate(-3251.484 -291.782)" fill="#b48c2e"/>
</svg>
