<svg id="Component_31_1s" data-name="Component 31 – 1s" xmlns="http://www.w3.org/2000/svg" width="41.084" height="41.119" viewBox="0 0 41.084 41.119">
  <path id="Path_1157" data-name="Path 1157" d="M-740.394,393.983c2.177,2.169,4.322,4.3,6.461,6.437a14.52,14.52,0,0,1,1.152,1.229,3.23,3.23,0,0,1-.29,4.373,3.132,3.132,0,0,1-4.3.207c-1.574-1.409-3.033-2.946-4.536-4.434-1.045-1.035-2.078-2.08-3.147-3.15a17.913,17.913,0,0,1-15.21,2.376,17.3,17.3,0,0,1-9.916-7.336,17.934,17.934,0,0,1,2.874-23.108,17.9,17.9,0,0,1,23.4-.685A18,18,0,0,1-740.394,393.983Zm-14.787-22.054a11.847,11.847,0,0,0-11.92,11.909,11.908,11.908,0,0,0,11.869,11.906,11.952,11.952,0,0,0,11.945-11.934A11.906,11.906,0,0,0-755.181,371.929Z" transform="translate(773.148 -365.872)" fill="#727687"/>
</svg>
