<svg id="Component_31_1" data-name="Component 31 – 1" xmlns="http://www.w3.org/2000/svg" width="71.811" height="36.43" viewBox="0 0 71.811 36.43">
  <path id="Path_1177" data-name="Path 1177" d="M2146.9,681.779v3.415h4.455a14.519,14.519,0,0,1-.2,6.8,16.923,16.923,0,0,1-10.217,12.068c-1.99.837-2.57,2.067-2.263,4.825a4.123,4.123,0,0,0,3.17,3.387c.526.1,1.407,0,1.521.26a6,6,0,0,1,.215,1.982h-13.636a3.552,3.552,0,0,1-.056-.494c-.031-1.529-.023-1.5,1.5-1.739a4.284,4.284,0,0,0,1.518-.57c1.905-1.164,2.04-3.044,1.851-4.989-.143-1.473-1.15-2.2-2.446-2.74a17.332,17.332,0,0,1-10.325-18.321c.015-.1.051-.2.107-.409h4.447v-3.479Zm-22.326,6.088c-.448,3.869,2.518,10.1,5.384,11.461.015-.064.062-.143.04-.189a35.9,35.9,0,0,1-3.067-10.71.819.819,0,0,0-.554-.536A14.849,14.849,0,0,0,2124.575,687.867Zm24.412.055c-.451-.027-.756-.026-1.056-.066-.949-.125-1.421.084-1.565,1.233a31.236,31.236,0,0,1-2.91,10.006c-.033.067.025.179.068.422A15.177,15.177,0,0,0,2148.988,687.922Z" transform="translate(-2100.615 -681.779)" fill="#46a3ce"/>
  <path id="Path_1178" data-name="Path 1178" d="M2046.688,714.894v1.925l-10.877,3.395c-.014-.032-.114-.244-.2-.462-.074-.189-.133-.383-.228-.662.283-.137.543-.273.811-.391a4.034,4.034,0,0,0,2.347-5.236c-.837-2.529-1.48-3.016-4.127-3.128-7.007-.3-13.661-5.926-15.425-13.051-.081-.328-.146-.661-.234-1.063l4.278-1.595-1.222-3.181,19.224-6.935.54,1.588c-.106.056-.162.109-.219.112-2.41.12-2.545.276-2.66,2.706a18.492,18.492,0,0,0,6.384,15.289c.124.112.242.231.484.461-.83.9-1.6,1.8-2.449,2.626-1.708,1.654-1.887,2.447-.955,4.853a3.94,3.94,0,0,0,3.913,2.747C2046.247,714.9,2046.417,714.894,2046.688,714.894Zm-15.723-8.113c-1.232-1.526-2.544-3-3.675-4.593s-2.1-3.345-3.18-5.1c-.392.141-.806.284-1.215.438-.281.105-.555.224-.823.333C2022.948,701.664,2027.5,706.11,2030.965,706.781Z" transform="translate(-2018.757 -683.948)" fill="#46a3ce"/>
  <path id="Path_1179" data-name="Path 1179" d="M2243.459,719.093l-.481,1.289c-1.79-.662-3.514-1.379-5.289-1.933s-3.626-.957-5.525-1.447v-1.811a12.769,12.769,0,0,0,3.007-1.073,4.346,4.346,0,0,0,.4-6.923c-.816-.765-1.528-1.641-2.337-2.521a18.8,18.8,0,0,0,6.854-16.816c-.112-1.2-.589-1.595-1.813-1.622-.305-.007-.611,0-1.082,0l.578-1.718,19.246,6.932-1.22,3.189,4.291,1.592a17.309,17.309,0,0,1-5.628,9.842,16.606,16.606,0,0,1-10.83,4.29c-1.8.044-2.783,1.031-3.454,3.353a4.034,4.034,0,0,0,2.293,4.927C2242.773,718.778,2243.077,718.919,2243.459,719.093Zm4.19-12.293c3.418-.486,8.419-5.2,9.072-8.977a13.014,13.014,0,0,1-1.418-.526c-.534-.267-.778-.084-1.031.4A34.573,34.573,0,0,1,2247.649,706.8Z" transform="translate(-2188.276 -683.951)" fill="#46a3ce"/>
</svg>
