<svg id="Component_16_11" data-name="Component 16 – 11" xmlns="http://www.w3.org/2000/svg" width="56" height="56" viewBox="0 0 56 56">
  <path id="Subtraction_1" data-name="Subtraction 1" d="M-71,512a27.825,27.825,0,0,1-10.9-2.2,27.907,27.907,0,0,1-8.9-6,27.907,27.907,0,0,1-6-8.9A27.824,27.824,0,0,1-99,484a27.824,27.824,0,0,1,2.2-10.9,27.907,27.907,0,0,1,6-8.9,27.907,27.907,0,0,1,8.9-6A27.825,27.825,0,0,1-71,456a27.825,27.825,0,0,1,10.9,2.2,27.907,27.907,0,0,1,8.9,6,27.907,27.907,0,0,1,6,8.9A27.824,27.824,0,0,1-43,484a27.824,27.824,0,0,1-2.2,10.9,27.907,27.907,0,0,1-6,8.9,27.907,27.907,0,0,1-8.9,6A27.825,27.825,0,0,1-71,512Zm6.5-48A14.516,14.516,0,0,0-79,478.5,14.516,14.516,0,0,0-64.5,493,14.516,14.516,0,0,0-50,478.5,14.516,14.516,0,0,0-64.5,464Z" transform="translate(99 -456)" fill="#3fb480"/>
</svg>
