<svg id="Component_8_12" data-name="Component 8 – 12" xmlns="http://www.w3.org/2000/svg" width="49.706" height="50.133" viewBox="0 0 49.706 50.133">
  <path id="Path_413" data-name="Path 413" d="M1611.84,367.968a12.051,12.051,0,0,1,4.061-8.905c3.271-2.87,6.463-5.829,9.75-8.68a6.59,6.59,0,0,1,2.5-1.3,2.314,2.314,0,0,1,2.65,1.206,5.509,5.509,0,0,1,.728,1.671c1.012,4.7,2.1,9.394,2.927,14.13a10.434,10.434,0,0,1-3.1,9.586c-3.5,3.4-7.227,6.572-10.892,9.8a4.511,4.511,0,0,1-1.82.947,2.79,2.79,0,0,1-3.478-2.159c-.478-1.6-.788-3.253-1.137-4.89q-1.03-4.835-2.012-9.679A16.582,16.582,0,0,1,1611.84,367.968Zm13.008-10.8a2.368,2.368,0,0,0,0,.4c.126.722.279,1.47,1.08,1.729a1.712,1.712,0,0,0,1.9-.732,4.6,4.6,0,0,0,1.13-4.077c-.341-1.5-1.56-1.849-2.68-.773A5,5,0,0,0,1624.848,357.167Zm-2.929,20.715c.055-1.18-.365-2.067-1.084-2.286s-1.6.239-2.242,1.206a4.978,4.978,0,0,0-.823,3.341,1.681,1.681,0,0,0,1.026,1.582,1.589,1.589,0,0,0,1.731-.542A4.781,4.781,0,0,0,1621.919,377.882Z" transform="translate(-1584.928 -338.045)" fill="#dc955f"/>
  <path id="Path_414" data-name="Path 414" d="M1478.62,303.393a31.138,31.138,0,0,1-3.268-.673c-4.246-1.341-8.475-2.736-12.7-4.142a6.786,6.786,0,0,1-1.848-.916,2.621,2.621,0,0,1-.771-3.674,6.5,6.5,0,0,1,1.264-1.533c3.367-3.048,6.7-6.136,10.161-9.077a11.093,11.093,0,0,1,10.81-2.275c4.422,1.31,8.783,2.826,13.158,4.289a5.752,5.752,0,0,1,1.737.956,2.556,2.556,0,0,1,.669,3.443,6.8,6.8,0,0,1-1.345,1.668q-4.867,4.416-9.787,8.774A12.326,12.326,0,0,1,1478.62,303.393Zm-.435-9.433a4.957,4.957,0,0,0,3.421-1.235,2.276,2.276,0,0,0,.645-1.444c-.008-.665-.635-1-1.256-1.176a4.955,4.955,0,0,0-3.853.568c-.99.551-1.493,1.322-1.281,2.011.278.9,1.066,1.107,1.892,1.21C1477.911,293.914,1478.069,293.942,1478.185,293.96Zm.17-10.781a5.485,5.485,0,0,0-3.65,1.38,1.36,1.36,0,0,0,.5,2.412,5.051,5.051,0,0,0,4.959-1.13,1.327,1.327,0,0,0-.489-2.31A8.887,8.887,0,0,0,1478.355,283.18Zm1.208,17.405a5.314,5.314,0,0,0,3.4-1.527,1.279,1.279,0,0,0-.272-2.149,4.821,4.821,0,0,0-5.456,1.2,1.249,1.249,0,0,0,.5,2A10.985,10.985,0,0,0,1479.563,300.585Z" transform="translate(-1457.116 -280.573)" fill="#dc955f"/>
  <path id="Path_415" data-name="Path 415" d="M1472.347,429.79c.007,2.777-1.8,4.018-4.46,3.194-3.564-1.1-7.1-2.29-10.648-3.441-.609-.2-1.215-.4-1.825-.593a11.608,11.608,0,0,1-8.406-9.259c-.91-4.371-1.857-8.735-2.757-13.108-.411-2,.561-3.67,2.316-3.9a5.265,5.265,0,0,1,2.2.225c4.5,1.42,9.022,2.78,13.452,4.393a10.953,10.953,0,0,1,7.171,8.2c1.049,4.5,1.92,9.048,2.863,13.575A6.787,6.787,0,0,1,1472.347,429.79Zm-6.647-15.423a4.891,4.891,0,0,0-3.319-4.016c-1.187-.312-2.1.434-1.861,1.624a4.755,4.755,0,0,0,3.283,3.8A1.324,1.324,0,0,0,1465.7,414.367Zm-18.279-6.943a4.882,4.882,0,0,0,3.457,4.146,1.341,1.341,0,0,0,1.721-1.507,5,5,0,0,0-3.263-3.984C1448.182,405.791,1447.429,406.32,1447.421,407.424Zm4.241,11.929a4.489,4.489,0,0,0-1.076.785,1.469,1.469,0,0,0-.188,1.06,4.809,4.809,0,0,0,3.123,3.748,1.377,1.377,0,0,0,2.056-1.062C1455.8,422.1,1453.564,419.527,1451.662,419.353Zm11.842,5.873a4.881,4.881,0,0,0,3.5,4.116,1.385,1.385,0,0,0,1.7-1.492,4.971,4.971,0,0,0-3.421-4.028C1464.167,423.589,1463.5,424.114,1463.5,425.226Z" transform="translate(-1444.157 -383.102)" fill="#dc955f"/>
</svg>
