<svg id="Component_13_12" data-name="Component 13 – 12" xmlns="http://www.w3.org/2000/svg" width="47" height="42.011" viewBox="0 0 47 42.011">
  <path id="Path_392" data-name="Path 392" d="M1156.652,266.064a12.533,12.533,0,0,0-12.245,1.316,16.322,16.322,0,0,1-.005,20.667,12.562,12.562,0,0,0,18.869-5.348A12.7,12.7,0,0,0,1156.652,266.064Zm1.341,13.011h-.031a1.806,1.806,0,0,1-1.8-1.779,4.088,4.088,0,0,0-2.965-3.887,1.809,1.809,0,0,1,.989-3.48,7.684,7.684,0,0,1,5.577,7.3A1.805,1.805,0,0,1,1157.994,279.075Zm-21.144-13.011a12.66,12.66,0,1,0,6.62,16.636A12.584,12.584,0,0,0,1136.849,266.064Zm1.341,13.011h-.031a1.806,1.806,0,0,1-1.8-1.779,4.139,4.139,0,0,0-2.965-3.886,1.809,1.809,0,0,1,.989-3.48,7.684,7.684,0,0,1,5.577,7.3A1.806,1.806,0,0,1,1138.19,279.075ZM1136.334,260l5.148-5.575,5.151,5.575a1.794,1.794,0,0,0,2.545.1,1.816,1.816,0,0,0,.094-2.558l-6.47-7a1.85,1.85,0,0,0-2.64,0l-6.469,7a1.817,1.817,0,0,0,.094,2.558A1.8,1.8,0,0,0,1136.334,260Zm24.586-6.249a18.247,18.247,0,0,0-15.255-5.239l20.465,20.569A18.445,18.445,0,0,0,1160.921,253.752Z" transform="translate(-1119.273 -248.37)" fill="#fff"/>
</svg>
