<svg xmlns="http://www.w3.org/2000/svg" width="54.935" height="43.701" viewBox="0 0 54.935 43.701">
  <g id="Group_1145" data-name="Group 1145" transform="translate(-484.294 -494.667)">
    <circle id="Ellipse_2" data-name="Ellipse 2" cx="5.189" cy="5.189" r="5.189" transform="translate(506.848 527.989)" fill="#08a594"/>
    <circle id="Ellipse_3" data-name="Ellipse 3" cx="5.19" cy="5.19" r="5.19" transform="translate(528.849 521.089)" fill="#08a594"/>
    <path id="Path_507" data-name="Path 507" d="M532.994,494.806l-22.908,7.01-.021,0-10.38,2.955a6.869,6.869,0,0,1-5.341-.659l-6.753-3.885a2.189,2.189,0,0,0-3.012.857,2.281,2.281,0,0,0,.841,3.072l6.754,3.884a11.328,11.328,0,0,0,3.248,1.252c.006.037,0,.072.011.109l3.283,16.385a3.194,3.194,0,0,0,4.365,2.364l34.046-14.409a3.278,3.278,0,0,0,1.935-3.528l-1.984-12.792A3.2,3.2,0,0,0,532.994,494.806Zm-1.244,9.175.528,3.41a1.8,1.8,0,0,1-1.06,1.933l-25.142,10.641a1.75,1.75,0,0,1-2.391-1.295l-1.231-6.144a1.794,1.794,0,0,1,1.215-2.073l25.844-7.908A1.755,1.755,0,0,1,531.75,503.98Z" transform="translate(0)" fill="#08a594"/>
    <path id="Path_508" data-name="Path 508" d="M510.03,520.473" transform="translate(-0.377 -0.352)" fill="#08a594" stroke="#1a1818" stroke-miterlimit="10" stroke-width="4"/>
    <path id="Path_509" data-name="Path 509" d="M527.125,513.38" transform="translate(-0.627 -0.255)" fill="#08a594" stroke="#1a1818" stroke-miterlimit="10" stroke-width="4"/>
    <path id="Path_510" data-name="Path 510" d="M524.628,498.764" transform="translate(-0.59 -0.299)" fill="#08a594" stroke="#1a1818" stroke-miterlimit="10" stroke-width="4"/>
  </g>
</svg>
