<svg id="Group_1158" data-name="Group 1158" xmlns="http://www.w3.org/2000/svg" xmlns:xlink="http://www.w3.org/1999/xlink" width="53.606" height="37.837" viewBox="0 0 53.606 37.837">
  <defs>
    <clipPath id="clip-path">
      <rect id="Rectangle_905" data-name="Rectangle 905" width="53.606" height="37.837" fill="#9aa1b2"/>
    </clipPath>
  </defs>
  <g id="Group_1157" data-name="Group 1157" clip-path="url(#clip-path)">
    <path id="Path_1175" data-name="Path 1175" d="M101.3,19.249a50.851,50.851,0,0,1-5.922,6.416,41.4,41.4,0,0,1-10.845,7.378,22.459,22.459,0,0,1-18.236.654c-2.364-.932-1.756-1.029-3.644.8-1,.964-1.972,1.949-2.943,2.939a.94.94,0,0,1-1.477.084Q57,36.36,55.831,35.15a.841.841,0,0,1,.047-1.338C58.66,30.945,61.361,28,64.19,25.178Q76.075,13.333,88.042,1.57c.451-.446.949-.843,1.4-1.285A.821.821,0,0,1,90.528.141,6.4,6.4,0,0,1,93.11,2.669a1.329,1.329,0,0,1-.1,1.137,12.488,12.488,0,0,1-1.427,1.646c-.565.6-1.14,1.187-1.74,1.75-.457.429-.459.765.087,1.1.339.209.653.46.988.676a39.649,39.649,0,0,1,10.095,9.831c.1.129.175.274.279.439m-16.552-6.8c-1.081,1.085-2.109,2.149-3.177,3.17a.858.858,0,0,0-.232,1.035,7.18,7.18,0,0,1-1.8,7.717,7.269,7.269,0,0,1-7.579,1.649c-.236-.069-.614-.118-.749.01-1.156,1.1-2.271,2.238-3.4,3.37,3.554,2.642,10.443,3.006,15.042-1.3a12.413,12.413,0,0,0,1.892-15.654" transform="translate(-47.69 0)" fill="#9aa1b2"/>
    <path id="Path_1176" data-name="Path 1176" d="M8.753,47A51.264,51.264,0,0,1,0,38.028c1.153-1.4,2.26-2.858,3.484-4.208A36.909,36.909,0,0,1,17.811,23.628a24.69,24.69,0,0,1,14.936-.908,2.9,2.9,0,0,1,.323.113c-.967,1.028-1.93,2.073-2.928,3.084-.111.112-.427.07-.634.031A12.332,12.332,0,0,0,14.722,40.765a.814.814,0,0,1-.077.624c-1.926,1.859-3.875,3.7-5.893,5.607" transform="translate(0 -18.87)" fill="#9aa1b2"/>
  </g>
</svg>
