<svg xmlns="http://www.w3.org/2000/svg" xmlns:xlink="http://www.w3.org/1999/xlink" width="90" height="90" viewBox="0 0 90 90">
  <defs>
    <clipPath id="clip-path">
      <rect id="Rectangle_897" data-name="Rectangle 897" width="90" height="90" fill="#d5deef"/>
    </clipPath>
  </defs>
  <g id="Group_1155" data-name="Group 1155" transform="translate(0 0)">
    <g id="Group_1154" data-name="Group 1154" transform="translate(0 0)" clip-path="url(#clip-path)">
      <path id="Path_1170" data-name="Path 1170" d="M88.746,35.428a4.389,4.389,0,1,0-8.546,2,34.041,34.041,0,0,1-.805,17.848c-4.34,13.732-16.4,24.084-30.729,25.548a36.135,36.135,0,0,1-11.7-71.2,35.61,35.61,0,0,1,17.828.537,4.374,4.374,0,0,0,2.576-8.36A44.36,44.36,0,0,0,35.519.986a44.89,44.89,0,1,0,53.328,52.92,44.246,44.246,0,0,0-.1-18.478" transform="translate(0.002 0.001)" fill="#d5deef"/>
      <path id="Path_1171" data-name="Path 1171" d="M24,16.114h5.559v5.559a2.739,2.739,0,0,0,5.478,0V16.114H40.6a2.6,2.6,0,1,0,0-5.209H35.041V5.348a2.739,2.739,0,1,0-5.478,0V10.9H24a2.6,2.6,0,0,0,0,5.209" transform="translate(41.018 5.002)" fill="#d5deef"/>
      <path id="Path_1172" data-name="Path 1172" d="M22.063,40.058V9.782H16.979L7.126,15.539l2.52,3.734,6.75-3.926V40.058Z" transform="translate(13.659 18.75)" fill="#d5deef"/>
      <path id="Path_1173" data-name="Path 1173" d="M25.393,9.6a12.518,12.518,0,0,0-4.97.974,8.431,8.431,0,0,0-3.6,2.815A7.064,7.064,0,0,0,15.5,17.626q0,4.721,4.544,7.213-5.762,2.455-5.758,7.715a7.84,7.84,0,0,0,1.348,4.492A9.165,9.165,0,0,0,19.455,40.2a13.561,13.561,0,0,0,5.8,1.158,13.948,13.948,0,0,0,5.915-1.178,9.546,9.546,0,0,0,3.938-3.2,7.751,7.751,0,0,0,1.394-4.515q0-5.351-6.21-8.167,5-2.586,5-6.9a6.84,6.84,0,0,0-1.327-4.221A8.2,8.2,0,0,0,30.387,10.5,13.259,13.259,0,0,0,25.393,9.6m-3.171,5.11a4.494,4.494,0,0,1,3.171-1.062,4.426,4.426,0,0,1,3.2,1.085A3.947,3.947,0,0,1,29.713,17.7a5.524,5.524,0,0,1-.744,2.928,7.477,7.477,0,0,1-2.5,2.325l-.855-.315a9.65,9.65,0,0,1-3.462-1.96,3.969,3.969,0,0,1-1.079-2.931,3.94,3.94,0,0,1,1.146-3.045m8.435,17.836a4.538,4.538,0,0,1-1.394,3.445,5.4,5.4,0,0,1-3.871,1.321,5.568,5.568,0,0,1-3.868-1.3,4.552,4.552,0,0,1-1.441-3.561A6.661,6.661,0,0,1,23.731,26.2l1.394.5a12.191,12.191,0,0,1,4.317,2.43,4.7,4.7,0,0,1,1.216,3.421" transform="translate(27.378 18.394)" fill="#d5deef"/>
    </g>
  </g>
</svg>
