<svg id="Group_1147" data-name="Group 1147" xmlns="http://www.w3.org/2000/svg" xmlns:xlink="http://www.w3.org/1999/xlink" width="45.8" height="45.686" viewBox="0 0 45.8 45.686">
  <defs>
    <clipPath id="clip-path">
      <rect id="Rectangle_889" data-name="Rectangle 889" width="45.8" height="45.686" fill="#fff"/>
    </clipPath>
  </defs>
  <g id="Group_1147-2" data-name="Group 1147" clip-path="url(#clip-path)">
    <path id="Path_1164" data-name="Path 1164" d="M0,45.687V42.332q0-18,0-36C.008,2.314,2.321.013,6.352.009q16.567-.015,33.135,0c3.984,0,6.293,2.338,6.3,6.381q.022,10.835,0,21.672c-.009,3.915-2.332,6.254-6.232,6.262-8.836.018-17.672.032-26.507-.017a3.736,3.736,0,0,0-2.96,1.251C6.891,38.85,3.616,42.07,0,45.687m14.311-31.43A2.909,2.909,0,1,0,17.2,17.233a2.872,2.872,0,0,0-2.889-2.976m8.63,5.819a2.911,2.911,0,1,0-2.954-2.912,2.9,2.9,0,0,0,2.954,2.912m8.619-5.817a2.911,2.911,0,0,0-.214,5.817,2.911,2.911,0,1,0,.214-5.817" transform="translate(0 -0.001)" fill="#fff"/>
  </g>
</svg>
