<svg xmlns="http://www.w3.org/2000/svg" width="100.311" height="50.888" viewBox="0 0 100.311 50.888">
  <g id="Group_1181" data-name="Group 1181" transform="translate(-269.189 -345.923)">
    <path id="Path_1181" data-name="Path 1181" d="M2156.86,681.779v4.77h6.223a20.285,20.285,0,0,1-.277,9.5c-2.023,7.911-6.672,13.661-14.272,16.858-2.78,1.169-3.59,2.887-3.162,6.74a5.759,5.759,0,0,0,4.429,4.731c.735.139,1.966,0,2.125.363a8.387,8.387,0,0,1,.3,2.769h-19.048a4.947,4.947,0,0,1-.078-.69c-.043-2.135-.032-2.092,2.095-2.429a5.982,5.982,0,0,0,2.121-.8c2.662-1.626,2.849-4.252,2.585-6.969-.2-2.058-1.607-3.075-3.416-3.827a24.211,24.211,0,0,1-14.423-25.593c.021-.139.071-.273.149-.571h6.212v-4.86Zm-31.186,8.5c-.625,5.405,3.517,14.1,7.521,16.009.021-.09.086-.2.055-.264a50.142,50.142,0,0,1-4.284-14.96,1.145,1.145,0,0,0-.774-.749A20.753,20.753,0,0,0,2125.674,690.283Zm34.1.077c-.63-.037-1.056-.036-1.475-.092-1.326-.175-1.985.118-2.186,1.723a43.635,43.635,0,0,1-4.065,13.977c-.046.093.035.25.094.59A21.2,21.2,0,0,0,2159.775,690.359Z" transform="translate(-1823.015 -335.856)" fill="#fbdf06"/>
    <path id="Path_1182" data-name="Path 1182" d="M2057.772,726.953v2.69l-15.194,4.742c-.02-.045-.159-.341-.278-.645-.1-.263-.185-.535-.318-.924.4-.192.758-.382,1.132-.546a5.635,5.635,0,0,0,3.279-7.314c-1.169-3.532-2.068-4.213-5.764-4.369-9.788-.415-19.082-8.277-21.546-18.23-.114-.459-.2-.923-.327-1.485l5.976-2.228-1.707-4.444,26.854-9.688.754,2.218c-.149.078-.226.152-.306.156-3.366.167-3.555.385-3.715,3.78a25.831,25.831,0,0,0,8.918,21.357c.174.157.339.323.676.644-1.159,1.25-2.234,2.518-3.421,3.668-2.386,2.31-2.637,3.418-1.333,6.78a5.5,5.5,0,0,0,5.467,3.838C2057.157,726.956,2057.4,726.953,2057.772,726.953ZM2035.81,715.62c-1.721-2.131-3.554-4.184-5.134-6.416-1.591-2.247-2.93-4.673-4.442-7.123-.547.2-1.125.4-1.7.612-.392.147-.776.313-1.149.466C2024.611,708.472,2030.974,714.682,2035.81,715.62Z" transform="translate(-1749.568 -337.8)" fill="#c49a6c"/>
    <path id="Path_1183" data-name="Path 1183" d="M2247.941,732.816l-.672,1.8c-2.5-.925-4.909-1.926-7.387-2.7-2.5-.781-5.066-1.336-7.717-2.021v-2.529c1.507-.515,3.051-.715,4.2-1.5a6.071,6.071,0,0,0,.555-9.671c-1.14-1.068-2.134-2.293-3.264-3.522a26.257,26.257,0,0,0,9.574-23.49c-.157-1.674-.822-2.228-2.532-2.266-.426-.009-.853,0-1.511,0,.29-.863.532-1.583.807-2.4l26.885,9.683-1.7,4.455,5.994,2.223a24.18,24.18,0,0,1-7.862,13.748,23.2,23.2,0,0,1-15.128,5.993c-2.517.062-3.887,1.441-4.825,4.684a5.636,5.636,0,0,0,3.2,6.882C2246.983,732.377,2247.408,732.572,2247.941,732.816Zm5.853-17.171c4.774-.678,11.76-7.269,12.673-12.54a18.175,18.175,0,0,1-1.98-.735c-.746-.373-1.087-.118-1.44.562A48.293,48.293,0,0,1,2253.794,715.644Z" transform="translate(-1901.668 -337.804)" fill="#818285"/>
  </g>
</svg>
