<svg id="Group_1151" data-name="Group 1151" xmlns="http://www.w3.org/2000/svg" xmlns:xlink="http://www.w3.org/1999/xlink" width="53.774" height="50.446" viewBox="0 0 53.774 50.446">
  <defs>
    <clipPath id="clip-path">
      <rect id="Rectangle_895" data-name="Rectangle 895" width="53.774" height="50.446" fill="#fff"/>
    </clipPath>
  </defs>
  <g id="Group_1151-2" data-name="Group 1151" clip-path="url(#clip-path)">
    <path id="Path_1165" data-name="Path 1165" d="M41.194,50.446a26.846,26.846,0,0,1-8.175-2.035A56.242,56.242,0,0,1,9.054,31.4,50.45,50.45,0,0,1,.242,15.234a6.352,6.352,0,0,1,.445-4.493C2.438,6.531,5.468,3.317,8.914.46a1.763,1.763,0,0,1,2.555.189Q15.792,5.63,20.011,10.7c.682.818.43,1.654-.4,2.48-1.684,1.668-3.328,3.377-4.983,5.074a1.7,1.7,0,0,0-.122,2.374c4.733,6.763,10.407,12.488,17.9,16.2,1.577.782,1.937.8,3.056-.571,1.254-1.538,2.372-3.19,3.512-4.818.914-1.305,1.849-1.553,3.189-.694Q47.49,34.166,52.8,37.623a1.735,1.735,0,0,1,.564,2.686,29.426,29.426,0,0,1-10.288,9.5,10.318,10.318,0,0,1-1.879.635" transform="translate(0 0)" fill="#fff"/>
  </g>
</svg>
