<svg xmlns="http://www.w3.org/2000/svg" xmlns:xlink="http://www.w3.org/1999/xlink" width="390.335" height="40.687" viewBox="0 0 390.335 40.687">
  <defs>
    <clipPath id="clip-path">
      <rect width="390.335" height="40.687" fill="none"/>
    </clipPath>
  </defs>
  <g id="logo" transform="translate(0 0.002)">
    <g id="Group_2" data-name="Group 2" transform="translate(0 -0.002)">
      <g id="Liderlogo" clip-path="url(#clip-path)">
        <path id="Path_10" data-name="Path 10" d="M14.581,30.167a2.623,2.623,0,0,1-1.435-1.009,2.079,2.079,0,0,1-.584-1.593,14.354,14.354,0,0,1,.451-2.658q.347-1.274.611-2.656L20.318.093H8.469Q6.661,5.938,5.388,10.056t-2.1,6.908Q2.463,19.756,2.014,21.4T1.3,23.978c-.177.621-.3,1.07-.372,1.353s-.125.532-.16.746Q-.83,32.133.9,35.613t6.4,4.064a62.56,62.56,0,0,0,10.893.637,81.316,81.316,0,0,0,11.317-1.169l2.816-9.831a68.264,68.264,0,0,1-8.82,1.221A39.6,39.6,0,0,1,14.581,30.167Z" transform="translate(0 0.073)" fill="#ffca2c"/>
        <path id="Path_11" data-name="Path 11" d="M113.342,5.991a7.969,7.969,0,0,0-1.646-2.6A9.7,9.7,0,0,0,107.526.81,16.816,16.816,0,0,0,102.61.094H80.931L69.295,39.785l27.152-.051a8.891,8.891,0,0,0,3.267-.614,12.5,12.5,0,0,0,2.949-1.646,16.352,16.352,0,0,0,2.549-2.39,28.813,28.813,0,0,0,2.127-2.79,13.646,13.646,0,0,0,1.274-2.63q.69-1.779,1.435-4.013t1.434-4.727q.692-2.5,1.249-4.783T113.609,12a18.4,18.4,0,0,0,.318-2.923A8.352,8.352,0,0,0,113.342,5.991Zm-10.864,7.146q-.347,1.408-.877,3.214t-1.169,3.8q-.64,1.992-1.276,3.772t-1.169,3.134a17.694,17.694,0,0,1-.8,1.834,9.783,9.783,0,0,1-.928,1.328,3.335,3.335,0,0,1-1.118.849,5.507,5.507,0,0,1-1.646.453,18.328,18.328,0,0,1-2.418.133h-7.6L90.5,7.265h9.085a2.546,2.546,0,0,1,1.328.346,3.492,3.492,0,0,1,1.011.905,4.426,4.426,0,0,1,.663,1.248,4.053,4.053,0,0,1,.239,1.328A9.9,9.9,0,0,1,102.478,13.138Z" transform="translate(52.29 0.074)" fill="#ffca2c"/>
        <path id="Path_12" data-name="Path 12" d="M111.874,30.265a2.123,2.123,0,0,1-1.33-.8,1.772,1.772,0,0,1-.477-1.434,15.039,15.039,0,0,1,.532-2.444q.371-1.221.637-2.444h14.984l2.339-7.6q-4.572,0-7.308-.028t-4.276-.026c-.991,0-1.711.009-2.153.026s-.823.044-1.14.081a7.572,7.572,0,0,0,.849-1.727,15.584,15.584,0,0,1,.876-1.993,6.416,6.416,0,0,1,1.223-1.646,2.533,2.533,0,0,1,1.834-.691h16.895L138.228.033H115.379a22.213,22.213,0,0,0-6.88,1.009,20.492,20.492,0,0,0-5.659,2.842,23.285,23.285,0,0,0-4.6,4.385A33.75,33.75,0,0,0,94.6,13.9a.288.288,0,0,0,.16.453.613.613,0,0,0,.584-.028.43.43,0,0,0,.265-.16A7.747,7.747,0,0,1,97.5,12.652a9.676,9.676,0,0,1,1.807-.77,16.147,16.147,0,0,1,1.7-.425,10.79,10.79,0,0,0,1.567-.425,67.591,67.591,0,0,0-2.842,7.625A70.936,70.936,0,0,0,97.793,26.6a17.85,17.85,0,0,0-.239,4.3,13.242,13.242,0,0,0,.928,4.251,8.809,8.809,0,0,0,2.365,3.348,7.1,7.1,0,0,0,4.064,1.646,84.871,84.871,0,0,0,22.211-.477l2.816-9.831a55.878,55.878,0,0,1-8.98.984A50.281,50.281,0,0,1,111.874,30.265Z" transform="translate(71.348 0.028)" fill="#ffca2c"/>
        <path id="Path_13" data-name="Path 13" d="M156.205,2.3A11.225,11.225,0,0,0,152.592.656a15.9,15.9,0,0,0-4.039-.532H128.521L116.567,39.709h11.477l3.4-11.265h7.332L142.6,39.709h11.159l-4.039-12.326a14.623,14.623,0,0,0,3.693-2.79,23.106,23.106,0,0,0,2.9-3.639,20.713,20.713,0,0,0,2.63-5.685,22.067,22.067,0,0,0,.877-6.166,7.677,7.677,0,0,0-1.009-3.985A9.018,9.018,0,0,0,156.205,2.3Zm-8.424,12.326A9.742,9.742,0,0,1,145.9,17.6c-.319.354-.63.7-.93,1.037a4.333,4.333,0,0,1-1.116.876,5.821,5.821,0,0,1-1.648.584,11.941,11.941,0,0,1-2.47.212h-5.845L137.819,7.3h7.332a2.688,2.688,0,0,1,1.355.346,3.393,3.393,0,0,1,1.037.9,4.461,4.461,0,0,1,.663,1.249,4.061,4.061,0,0,1,.239,1.328A9.286,9.286,0,0,1,147.781,14.627Z" transform="translate(87.961 0.096)" fill="#ffca2c"/>
        <path id="Path_14" data-name="Path 14" d="M193.039,1.545a3.907,3.907,0,0,0-1.355-.612,16.327,16.327,0,0,0-2.02-.4q-1.142-.161-2.444-.24t-2.63-.132l.054-.107L174.019,0a37.586,37.586,0,0,0-7.652.556,14.386,14.386,0,0,0-5.155,2.02A14.115,14.115,0,0,0,157.466,6.3a52.187,52.187,0,0,0-3.374,5.66c-.07.249.026.407.293.479a.578.578,0,0,0,.663-.265,9.487,9.487,0,0,1,2.551-2.125,15.557,15.557,0,0,1,3.56-1.49L151.541,39.8h20.776a43.808,43.808,0,0,0,4.943-.24,19.589,19.589,0,0,0,3.453-.663,13.468,13.468,0,0,0,5.685-3.56,14.642,14.642,0,0,0,3.453-6.057q2.179-6.64-3.293-9.245a12.752,12.752,0,0,0,2.923-1.512,16.769,16.769,0,0,0,2.63-2.234,16.308,16.308,0,0,0,2.1-2.709,13.186,13.186,0,0,0,1.381-3,8.453,8.453,0,0,0,.133-5.234A7.545,7.545,0,0,0,193.039,1.545ZM179.279,27.9a6.029,6.029,0,0,1-1.17,2.153,6.65,6.65,0,0,1-2.921,2.179,6.3,6.3,0,0,1-1.011.293,10.806,10.806,0,0,1-1.249.158c-.477.037-1.035.053-1.672.053h-5.845l2.762-9.192h6.059a14.246,14.246,0,0,1,2.735.188,4.246,4.246,0,0,1,1.567.663Q180.079,25.511,179.279,27.9Zm4.939-16.26A6.773,6.773,0,0,1,183,13.794a7.961,7.961,0,0,1-1.965,1.727,5.77,5.77,0,0,1-1.914.769,16.181,16.181,0,0,1-2.869.188h-5.9L173.061,7.6h9.3V7.549a2.3,2.3,0,0,1,1.062.584Q184.964,9.25,184.219,11.641Z" transform="translate(114.352 0.002)" fill="#fff"/>
        <path id="Path_15" data-name="Path 15" d="M194.332,30.265a2.123,2.123,0,0,1-1.33-.8,1.765,1.765,0,0,1-.476-1.434,15.044,15.044,0,0,1,.532-2.444q.371-1.221.637-2.444h14.983l2.339-7.6q-4.569,0-7.308-.028t-4.276-.026c-.991,0-1.712.009-2.155.026s-.823.044-1.139.081a7.5,7.5,0,0,0,.847-1.727,15.849,15.849,0,0,1,.877-1.993,6.374,6.374,0,0,1,1.223-1.646,2.527,2.527,0,0,1,1.834-.691h16.893L220.684.033H197.837a22.213,22.213,0,0,0-6.88,1.009,20.526,20.526,0,0,0-5.66,2.842,23.277,23.277,0,0,0-4.6,4.385,33.753,33.753,0,0,0-3.639,5.631.289.289,0,0,0,.16.453.613.613,0,0,0,.584-.028.426.426,0,0,0,.265-.16,7.714,7.714,0,0,1,1.886-1.512,9.712,9.712,0,0,1,1.805-.77,16.255,16.255,0,0,1,1.7-.425,10.73,10.73,0,0,0,1.567-.425,67.585,67.585,0,0,0-2.842,7.625,71.705,71.705,0,0,0-1.939,7.943,17.763,17.763,0,0,0-.237,4.3,13.288,13.288,0,0,0,.926,4.251,8.813,8.813,0,0,0,2.367,3.348,7.09,7.09,0,0,0,4.062,1.646,84.871,84.871,0,0,0,22.211-.477L212.4,29.84a55.921,55.921,0,0,1-8.982.984A50.272,50.272,0,0,1,194.332,30.265Z" transform="translate(133.571 0.028)" fill="#fff"/>
        <path id="Path_16" data-name="Path 16" d="M219.666.14V.034a27.117,27.117,0,0,0-7.731.847,15.646,15.646,0,0,0-5.367,2.685,18.3,18.3,0,0,0-3.958,4.383q-1.7,2.6-3.455,5.952c-.072.249.028.407.295.477a.6.6,0,0,0,.661-.212A19.351,19.351,0,0,1,201.92,12.2a7.943,7.943,0,0,1,2.574-1.541,16.941,16.941,0,0,1,4.2-.93,50.705,50.705,0,0,1,6.724-.186L206.17,39.778h12.008l9.14-30.233H237.2L240.07.14h-20.4Z" transform="translate(150.265 0.026)" fill="#fff"/>
        <rect id="Rectangle_2" data-name="Rectangle 2" width="10.38" height="6.418" transform="translate(252.057 19.931)" fill="#fff"/>
        <path id="Path_17" data-name="Path 17" d="M38.332,30.265a2.123,2.123,0,0,1-1.33-.8,1.765,1.765,0,0,1-.475-1.434,15.043,15.043,0,0,1,.532-2.444q.371-1.221.637-2.444H52.677l2.339-7.6q-4.569,0-7.308-.028t-4.276-.026c-.991,0-1.712.009-2.155.026s-.823.044-1.139.081a7.5,7.5,0,0,0,.847-1.727,15.843,15.843,0,0,1,.877-1.993,6.375,6.375,0,0,1,1.223-1.646,2.527,2.527,0,0,1,1.834-.691H61.813L64.684.033H41.837a22.213,22.213,0,0,0-6.88,1.009A20.526,20.526,0,0,0,29.3,3.884a23.276,23.276,0,0,0-4.6,4.385A33.751,33.751,0,0,0,21.063,13.9a.289.289,0,0,0,.16.453.613.613,0,0,0,.584-.028.426.426,0,0,0,.265-.16,7.714,7.714,0,0,1,1.886-1.512,9.712,9.712,0,0,1,1.805-.77,16.254,16.254,0,0,1,1.7-.425,10.73,10.73,0,0,0,1.567-.425,67.591,67.591,0,0,0-2.842,7.625A71.712,71.712,0,0,0,24.249,26.6a17.763,17.763,0,0,0-.237,4.3,13.288,13.288,0,0,0,.926,4.251A8.813,8.813,0,0,0,27.306,38.5a7.09,7.09,0,0,0,4.062,1.646,84.871,84.871,0,0,0,22.211-.477L56.4,29.84a55.921,55.921,0,0,1-8.982.984A50.272,50.272,0,0,1,38.332,30.265Z" transform="translate(15.854 0.028)" fill="#ffca2c"/>
        <path id="Path_18" data-name="Path 18" d="M66.764.2a3.941,3.941,0,0,0-2.679,1.777c-7.45,12.382-14.8,24.624-22.626,37.81l12.166,0s2.156-2.993,4.278-6.241c.886-1.358,1.5-2.1,2.332-2.139,4.685-.207,9.382-.1,13.944-.1.383,3.183.7,5.787,1.012,8.417H88.273c-1.837-13.3-3.632-26.294-5.471-39.6C77.27.116,72.014.028,66.764.2ZM72.6,22.35H63.884c2.651-4.827,5.2-9.468,7.752-14.109l.958.253C72.6,12.991,72.6,17.49,72.6,22.35Z" transform="translate(31.285 0.073)" fill="#ffca2c"/>
      </g>
    </g>
  </g>
</svg>
